<?xml version="1.0" encoding="UTF-8"?>
<!--Generator: Apple Native CoreSVG 123-->
<!DOCTYPE svg
PUBLIC "-//W3C//DTD SVG 1.1//EN"
       "http://www.w3.org/Graphics/SVG/1.1/DTD/svg11.dtd">
<svg version="1.1" xmlns="http://www.w3.org/2000/svg" xmlns:xlink="http://www.w3.org/1999/xlink" width="3300" height="2200">
 <!--glyph: "uni1003AA.medium", point size: 100.000000, font version: "Version 15.0d7e11", template writer version: "5"-->
 <g id="Notes">
  <rect height="2200" id="artboard" style="fill:white;opacity:1" width="3300" x="0" y="0"/>
  <line id="" style="fill:none;stroke:black;opacity:1;stroke-width:0.5;" x1="263" x2="3036" y1="292" y2="292"/>
  <text style="stroke:none;fill:black;font-family:-apple-system,&quot;SF Pro Display&quot;,&quot;SF Pro Text&quot;,Helvetica,sans-serif;font-weight:bold;" transform="matrix(1 0 0 1 263 322)">Weight/Scale Variations</text>
  <text style="stroke:none;fill:black;font-family:-apple-system,&quot;SF Pro Display&quot;,&quot;SF Pro Text&quot;,Helvetica,sans-serif;text-anchor:middle;" transform="matrix(1 0 0 1 559.711 322)">Ultralight</text>
  <text style="stroke:none;fill:black;font-family:-apple-system,&quot;SF Pro Display&quot;,&quot;SF Pro Text&quot;,Helvetica,sans-serif;text-anchor:middle;" transform="matrix(1 0 0 1 856.422 322)">Thin</text>
  <text style="stroke:none;fill:black;font-family:-apple-system,&quot;SF Pro Display&quot;,&quot;SF Pro Text&quot;,Helvetica,sans-serif;text-anchor:middle;" transform="matrix(1 0 0 1 1153.13 322)">Light</text>
  <text style="stroke:none;fill:black;font-family:-apple-system,&quot;SF Pro Display&quot;,&quot;SF Pro Text&quot;,Helvetica,sans-serif;text-anchor:middle;" transform="matrix(1 0 0 1 1449.84 322)">Regular</text>
  <text style="stroke:none;fill:black;font-family:-apple-system,&quot;SF Pro Display&quot;,&quot;SF Pro Text&quot;,Helvetica,sans-serif;text-anchor:middle;" transform="matrix(1 0 0 1 1746.56 322)">Medium</text>
  <text style="stroke:none;fill:black;font-family:-apple-system,&quot;SF Pro Display&quot;,&quot;SF Pro Text&quot;,Helvetica,sans-serif;text-anchor:middle;" transform="matrix(1 0 0 1 2043.27 322)">Semibold</text>
  <text style="stroke:none;fill:black;font-family:-apple-system,&quot;SF Pro Display&quot;,&quot;SF Pro Text&quot;,Helvetica,sans-serif;text-anchor:middle;" transform="matrix(1 0 0 1 2339.98 322)">Bold</text>
  <text style="stroke:none;fill:black;font-family:-apple-system,&quot;SF Pro Display&quot;,&quot;SF Pro Text&quot;,Helvetica,sans-serif;text-anchor:middle;" transform="matrix(1 0 0 1 2636.69 322)">Heavy</text>
  <text style="stroke:none;fill:black;font-family:-apple-system,&quot;SF Pro Display&quot;,&quot;SF Pro Text&quot;,Helvetica,sans-serif;text-anchor:middle;" transform="matrix(1 0 0 1 2933.4 322)">Black</text>
  <line id="" style="fill:none;stroke:black;opacity:1;stroke-width:0.5;" x1="263" x2="3036" y1="1903" y2="1903"/>
  <g id="" transform="matrix(1 0 0 1 263 1933)">
   <path d="M 9.24805 0.830078 C 13.5547 0.830078 17.1387 -2.74414 17.1387 -7.05078 C 17.1387 -11.3574 13.5449 -14.9316 9.23828 -14.9316 C 4.94141 -14.9316 1.36719 -11.3574 1.36719 -7.05078 C 1.36719 -2.74414 4.95117 0.830078 9.24805 0.830078 Z M 9.24805 -0.654297 C 5.70312 -0.654297 2.87109 -3.49609 2.87109 -7.05078 C 2.87109 -10.6055 5.69336 -13.4473 9.23828 -13.4473 C 12.793 -13.4473 15.6348 -10.6055 15.6445 -7.05078 C 15.6543 -3.49609 12.8027 -0.654297 9.24805 -0.654297 Z M 9.22852 -3.42773 C 9.69727 -3.42773 9.9707 -3.74023 9.9707 -4.25781 L 9.9707 -6.31836 L 12.1973 -6.31836 C 12.6953 -6.31836 13.0371 -6.57227 13.0371 -7.04102 C 13.0371 -7.51953 12.7148 -7.7832 12.1973 -7.7832 L 9.9707 -7.7832 L 9.9707 -10.0098 C 9.9707 -10.5273 9.69727 -10.8496 9.22852 -10.8496 C 8.75977 -10.8496 8.50586 -10.5078 8.50586 -10.0098 L 8.50586 -7.7832 L 6.29883 -7.7832 C 5.78125 -7.7832 5.44922 -7.51953 5.44922 -7.04102 C 5.44922 -6.57227 5.80078 -6.31836 6.29883 -6.31836 L 8.50586 -6.31836 L 8.50586 -4.25781 C 8.50586 -3.75977 8.75977 -3.42773 9.22852 -3.42773 Z"/>
  </g>
  <g id="" transform="matrix(1 0 0 1 281.506 1933)">
   <path d="M 11.709 2.91016 C 17.1582 2.91016 21.6699 -1.60156 21.6699 -7.05078 C 21.6699 -12.4902 17.1484 -17.0117 11.6992 -17.0117 C 6.25977 -17.0117 1.74805 -12.4902 1.74805 -7.05078 C 1.74805 -1.60156 6.26953 2.91016 11.709 2.91016 Z M 11.709 1.25 C 7.09961 1.25 3.41797 -2.44141 3.41797 -7.05078 C 3.41797 -11.6504 7.08984 -15.3516 11.6992 -15.3516 C 16.3086 -15.3516 20 -11.6504 20.0098 -7.05078 C 20.0195 -2.44141 16.3184 1.25 11.709 1.25 Z M 11.6895 -2.41211 C 12.207 -2.41211 12.5195 -2.77344 12.5195 -3.33984 L 12.5195 -6.23047 L 15.5762 -6.23047 C 16.123 -6.23047 16.5039 -6.51367 16.5039 -7.03125 C 16.5039 -7.55859 16.1426 -7.86133 15.5762 -7.86133 L 12.5195 -7.86133 L 12.5195 -10.9277 C 12.5195 -11.5039 12.207 -11.8555 11.6895 -11.8555 C 11.1719 -11.8555 10.8789 -11.4844 10.8789 -10.9277 L 10.8789 -7.86133 L 7.83203 -7.86133 C 7.26562 -7.86133 6.89453 -7.55859 6.89453 -7.03125 C 6.89453 -6.51367 7.28516 -6.23047 7.83203 -6.23047 L 10.8789 -6.23047 L 10.8789 -3.33984 C 10.8789 -2.79297 11.1719 -2.41211 11.6895 -2.41211 Z"/>
  </g>
  <g id="" transform="matrix(1 0 0 1 304.924 1933)">
   <path d="M 14.9707 5.67383 C 21.9336 5.67383 27.6953 -0.078125 27.6953 -7.04102 C 27.6953 -14.0039 21.9238 -19.7559 14.9609 -19.7559 C 8.00781 -19.7559 2.25586 -14.0039 2.25586 -7.04102 C 2.25586 -0.078125 8.01758 5.67383 14.9707 5.67383 Z M 14.9707 3.85742 C 8.93555 3.85742 4.08203 -1.00586 4.08203 -7.04102 C 4.08203 -13.0762 8.92578 -17.9395 14.9609 -17.9395 C 21.0059 -17.9395 25.8594 -13.0762 25.8691 -7.04102 C 25.8789 -1.00586 21.0156 3.85742 14.9707 3.85742 Z M 14.9512 -1.06445 C 15.5176 -1.06445 15.8691 -1.45508 15.8691 -2.06055 L 15.8691 -6.13281 L 20.1074 -6.13281 C 20.6934 -6.13281 21.1133 -6.46484 21.1133 -7.02148 C 21.1133 -7.59766 20.7227 -7.93945 20.1074 -7.93945 L 15.8691 -7.93945 L 15.8691 -12.1875 C 15.8691 -12.8027 15.5176 -13.1934 14.9512 -13.1934 C 14.3848 -13.1934 14.0625 -12.7832 14.0625 -12.1875 L 14.0625 -7.93945 L 9.83398 -7.93945 C 9.21875 -7.93945 8.80859 -7.59766 8.80859 -7.02148 C 8.80859 -6.46484 9.23828 -6.13281 9.83398 -6.13281 L 14.0625 -6.13281 L 14.0625 -2.06055 C 14.0625 -1.47461 14.3848 -1.06445 14.9512 -1.06445 Z"/>
  </g>
  <text style="stroke:none;fill:black;font-family:-apple-system,&quot;SF Pro Display&quot;,&quot;SF Pro Text&quot;,Helvetica,sans-serif;font-weight:bold;" transform="matrix(1 0 0 1 263 1953)">Design Variations</text>
  <text style="stroke:none;fill:black;font-family:-apple-system,&quot;SF Pro Display&quot;,&quot;SF Pro Text&quot;,Helvetica,sans-serif;" transform="matrix(1 0 0 1 263 1971)">Symbols are supported in up to nine weights and three scales.</text>
  <text style="stroke:none;fill:black;font-family:-apple-system,&quot;SF Pro Display&quot;,&quot;SF Pro Text&quot;,Helvetica,sans-serif;" transform="matrix(1 0 0 1 263 1989)">For optimal layout with text and other symbols, vertically align</text>
  <text style="stroke:none;fill:black;font-family:-apple-system,&quot;SF Pro Display&quot;,&quot;SF Pro Text&quot;,Helvetica,sans-serif;" transform="matrix(1 0 0 1 263 2007)">symbols with the adjacent text.</text>
  <rect height="14" id="" style="fill:#00AEEF;stroke:none;opacity:0.4;" width="3" x="776" y="1919"/>
  <g id="" transform="matrix(1 0 0 1 779 1933)">
   <path d="M 10.5273 0 L 12.373 0 L 7.17773 -14.0918 L 5.43945 -14.0918 L 0.244141 0 L 2.08984 0 L 3.50586 -4.0332 L 9.11133 -4.0332 Z M 6.2793 -11.9531 L 6.33789 -11.9531 L 8.59375 -5.52734 L 4.02344 -5.52734 Z"/>
  </g>
  <rect height="14" id="" style="fill:#00AEEF;stroke:none;opacity:0.4;" width="3" x="791.617" y="1919"/>
  <text style="stroke:none;fill:black;font-family:-apple-system,&quot;SF Pro Display&quot;,&quot;SF Pro Text&quot;,Helvetica,sans-serif;font-weight:bold;" transform="matrix(1 0 0 1 776 1953)">Margins</text>
  <text style="stroke:none;fill:black;font-family:-apple-system,&quot;SF Pro Display&quot;,&quot;SF Pro Text&quot;,Helvetica,sans-serif;" transform="matrix(1 0 0 1 776 1971)">Leading and trailing margins on the left and right side of each symbol</text>
  <text style="stroke:none;fill:black;font-family:-apple-system,&quot;SF Pro Display&quot;,&quot;SF Pro Text&quot;,Helvetica,sans-serif;" transform="matrix(1 0 0 1 776 1989)">can be adjusted by modifying the width of the blue rectangles.</text>
  <text style="stroke:none;fill:black;font-family:-apple-system,&quot;SF Pro Display&quot;,&quot;SF Pro Text&quot;,Helvetica,sans-serif;" transform="matrix(1 0 0 1 776 2007)">Modifications are automatically applied proportionally to all</text>
  <text style="stroke:none;fill:black;font-family:-apple-system,&quot;SF Pro Display&quot;,&quot;SF Pro Text&quot;,Helvetica,sans-serif;" transform="matrix(1 0 0 1 776 2025)">scales and weights.</text>
  <g id="" transform="matrix(1 0 0 1 1289 1933)">
   <path d="M 2.83203 3.11523 L 4.375 4.6582 C 5.22461 5.48828 6.19141 5.41992 7.06055 4.46289 L 17.2754 -6.66016 C 17.7051 -6.36719 18.0957 -6.37695 18.5645 -6.47461 L 19.6094 -6.68945 L 20.3027 -5.99609 L 20.2539 -5.47852 C 20.1855 -4.95117 20.3516 -4.53125 20.8496 -4.0332 L 21.6602 -3.22266 C 22.168 -2.71484 22.8223 -2.68555 23.3008 -3.16406 L 26.5527 -6.41602 C 27.0312 -6.89453 27.0117 -7.54883 26.5039 -8.05664 L 25.6836 -8.87695 C 25.1855 -9.375 24.7754 -9.55078 24.2383 -9.47266 L 23.7109 -9.41406 L 23.0566 -10.0781 L 23.3398 -11.2207 C 23.4863 -11.7871 23.3398 -12.2559 22.7148 -12.8613 L 20.3027 -15.2539 C 16.7578 -18.7793 12.2266 -18.6719 9.11133 -15.5371 C 8.69141 -15.1074 8.64258 -14.5215 8.91602 -14.0918 C 9.15039 -13.7207 9.62891 -13.4961 10.2734 -13.6621 C 11.7871 -14.043 13.3008 -13.9258 14.7852 -12.9199 L 14.1602 -11.3379 C 13.9258 -10.752 13.9453 -10.2734 14.1797 -9.83398 L 3.01758 0.439453 C 2.08008 1.30859 1.97266 2.25586 2.83203 3.11523 Z M 10.6738 -15.1465 C 13.3398 -17.1387 16.6504 -16.8262 19.0527 -14.4141 L 21.6797 -11.8066 C 21.9141 -11.5723 21.9434 -11.3867 21.8848 -11.0938 L 21.5039 -9.53125 L 23.0762 -7.95898 L 24.043 -8.04688 C 24.3262 -8.07617 24.4141 -8.05664 24.6387 -7.83203 L 25.2637 -7.20703 L 22.5098 -4.46289 L 21.8848 -5.07812 C 21.6602 -5.30273 21.6406 -5.40039 21.6699 -5.68359 L 21.7578 -6.64062 L 20.1953 -8.20312 L 18.5742 -7.89062 C 18.291 -7.83203 18.1445 -7.83203 17.9102 -8.07617 L 15.7324 -10.2539 C 15.5078 -10.4883 15.4785 -10.625 15.6055 -10.9473 L 16.5527 -13.2227 C 14.9512 -14.7559 12.8418 -15.6055 10.8008 -14.9512 C 10.7129 -14.9219 10.6445 -14.9414 10.6152 -14.9805 C 10.5859 -15.0293 10.5859 -15.0781 10.6738 -15.1465 Z M 4.10156 2.41211 C 3.61328 1.91406 3.78906 1.61133 4.12109 1.30859 L 15.0781 -8.80859 L 16.3086 -7.57812 L 6.15234 3.34961 C 5.84961 3.68164 5.46875 3.7793 5.06836 3.37891 Z"/>
  </g>
  <text style="stroke:none;fill:black;font-family:-apple-system,&quot;SF Pro Display&quot;,&quot;SF Pro Text&quot;,Helvetica,sans-serif;font-weight:bold;" transform="matrix(1 0 0 1 1289 1953)">Exporting</text>
  <text style="stroke:none;fill:black;font-family:-apple-system,&quot;SF Pro Display&quot;,&quot;SF Pro Text&quot;,Helvetica,sans-serif;" transform="matrix(1 0 0 1 1289 1971)">Symbols should be outlined when exporting to ensure the</text>
  <text style="stroke:none;fill:black;font-family:-apple-system,&quot;SF Pro Display&quot;,&quot;SF Pro Text&quot;,Helvetica,sans-serif;" transform="matrix(1 0 0 1 1289 1989)">design is preserved when submitting to Xcode.</text>
  <text id="template-version" style="stroke:none;fill:black;font-family:-apple-system,&quot;SF Pro Display&quot;,&quot;SF Pro Text&quot;,Helvetica,sans-serif;text-anchor:end;" transform="matrix(1 0 0 1 3036 1933)">Template v.1.0</text>
  <text style="stroke:none;fill:black;font-family:-apple-system,&quot;SF Pro Display&quot;,&quot;SF Pro Text&quot;,Helvetica,sans-serif;text-anchor:end;" transform="matrix(1 0 0 1 3036 1951)">Generated from mappin</text>
  <text style="stroke:none;fill:black;font-family:-apple-system,&quot;SF Pro Display&quot;,&quot;SF Pro Text&quot;,Helvetica,sans-serif;text-anchor:end;" transform="matrix(1 0 0 1 3036 1969)">Typeset at 100 points</text>
  <text style="stroke:none;fill:black;font-family:-apple-system,&quot;SF Pro Display&quot;,&quot;SF Pro Text&quot;,Helvetica,sans-serif;" transform="matrix(1 0 0 1 263 726)">Small</text>
  <text style="stroke:none;fill:black;font-family:-apple-system,&quot;SF Pro Display&quot;,&quot;SF Pro Text&quot;,Helvetica,sans-serif;" transform="matrix(1 0 0 1 263 1156)">Medium</text>
  <text style="stroke:none;fill:black;font-family:-apple-system,&quot;SF Pro Display&quot;,&quot;SF Pro Text&quot;,Helvetica,sans-serif;" transform="matrix(1 0 0 1 263 1586)">Large</text>
 </g>
 <g id="Guides">
  <g id="H-reference" style="fill:#27AAE1;stroke:none;" transform="matrix(1 0 0 1 339 696)">
   <path d="M 54.9316 0 L 57.666 0 L 30.5664 -70.459 L 28.0762 -70.459 L 0.976562 0 L 3.66211 0 L 12.9395 -24.4629 L 45.7031 -24.4629 Z M 29.1992 -67.0898 L 29.4434 -67.0898 L 44.8242 -26.709 L 13.8184 -26.709 Z"/>
  </g>
  <line id="Baseline-S" style="fill:none;stroke:#27AAE1;opacity:1;stroke-width:0.577;" x1="263" x2="3036" y1="696" y2="696"/>
  <line id="Capline-S" style="fill:none;stroke:#27AAE1;opacity:1;stroke-width:0.577;" x1="263" x2="3036" y1="625.541" y2="625.541"/>
  <g id="H-reference" style="fill:#27AAE1;stroke:none;" transform="matrix(1 0 0 1 339 1126)">
   <path d="M 54.9316 0 L 57.666 0 L 30.5664 -70.459 L 28.0762 -70.459 L 0.976562 0 L 3.66211 0 L 12.9395 -24.4629 L 45.7031 -24.4629 Z M 29.1992 -67.0898 L 29.4434 -67.0898 L 44.8242 -26.709 L 13.8184 -26.709 Z"/>
  </g>
  <line id="Baseline-M" style="fill:none;stroke:#27AAE1;opacity:1;stroke-width:0.577;" x1="263" x2="3036" y1="1126" y2="1126"/>
  <line id="Capline-M" style="fill:none;stroke:#27AAE1;opacity:1;stroke-width:0.577;" x1="263" x2="3036" y1="1055.54" y2="1055.54"/>
  <g id="H-reference" style="fill:#27AAE1;stroke:none;" transform="matrix(1 0 0 1 339 1556)">
   <path d="M 54.9316 0 L 57.666 0 L 30.5664 -70.459 L 28.0762 -70.459 L 0.976562 0 L 3.66211 0 L 12.9395 -24.4629 L 45.7031 -24.4629 Z M 29.1992 -67.0898 L 29.4434 -67.0898 L 44.8242 -26.709 L 13.8184 -26.709 Z"/>
  </g>
  <line id="Baseline-L" style="fill:none;stroke:#27AAE1;opacity:1;stroke-width:0.577;" x1="263" x2="3036" y1="1556" y2="1556"/>
  <line id="Capline-L" style="fill:none;stroke:#27AAE1;opacity:1;stroke-width:0.577;" x1="263" x2="3036" y1="1485.54" y2="1485.54"/>
  <rect height="119.336" id="left-margin" style="fill:#00AEEF;stroke:none;opacity:0.4;" width="28.7598" x="1402.75" y="1030.79"/>
  <rect height="119.336" id="right-margin" style="fill:#00AEEF;stroke:none;opacity:0.4;" width="28.7598" x="1468.18" y="1030.79"/>
 </g>
 <g id="Symbols">
  <g id="Black-L" transform="matrix(1 0 0 1 2868.14 1556)">
   <path d="M 65.2832 31.9824 C 68.2129 31.9824 74.5117 19.6289 74.5117 6.49414 L 74.5117 -54.2969 C 86.377 -58.2031 94.8242 -69.3848 94.8242 -82.4707 C 94.8242 -98.8281 81.7383 -112.158 65.2832 -112.158 C 48.877 -112.158 35.6934 -98.8281 35.6934 -82.4707 C 35.6934 -69.3848 44.1406 -58.252 55.9082 -54.3457 L 55.9082 6.49414 C 55.9082 19.5312 62.3047 31.9824 65.2832 31.9824 Z M 56.9824 -80.6152 C 51.6113 -80.6152 46.875 -85.3516 46.875 -90.8203 C 46.875 -96.2891 51.6113 -100.928 56.9824 -100.928 C 62.5977 -100.928 67.0898 -96.2891 67.0898 -90.8203 C 67.0898 -85.3516 62.5977 -80.6152 56.9824 -80.6152 Z"/>
  </g>
  <g id="Heavy-L" transform="matrix(1 0 0 1 2573.11 1556)">
   <path d="M 63.5742 31.1523 C 66.3086 31.1523 71.8262 19.6777 71.8262 5.9082 L 71.8262 -55.2734 C 83.2031 -58.7891 91.3574 -69.4336 91.3574 -81.9336 C 91.3574 -97.3145 79.0527 -109.863 63.5742 -109.863 C 48.1445 -109.863 35.791 -97.3145 35.791 -81.9336 C 35.791 -69.4824 43.9453 -58.8379 55.2734 -55.3223 L 55.2734 5.9082 C 55.2734 19.5801 60.8398 31.1523 63.5742 31.1523 Z M 55.7129 -80.2734 C 50.6836 -80.2734 46.2402 -84.7168 46.2402 -89.8438 C 46.2402 -95.0195 50.6836 -99.3652 55.7129 -99.3652 C 60.9863 -99.3652 65.2344 -95.0195 65.2344 -89.8438 C 65.2344 -84.7168 60.9863 -80.2734 55.7129 -80.2734 Z"/>
  </g>
  <g id="Bold-L" transform="matrix(1 0 0 1 2278.28 1556)">
   <path d="M 61.6699 30.1758 C 64.2578 30.1758 68.75 19.7266 68.75 5.22461 L 68.75 -56.3965 C 79.6387 -59.4727 87.5 -69.4824 87.5 -81.2988 C 87.5 -95.6055 76.0742 -107.275 61.6699 -107.275 C 47.3633 -107.275 35.8887 -95.6055 35.8887 -81.2988 C 35.8887 -69.5312 43.7012 -59.5215 54.541 -56.3965 L 54.541 5.22461 C 54.541 19.6777 59.1309 30.1758 61.6699 30.1758 Z M 54.2969 -79.8828 C 49.6094 -79.8828 45.5078 -83.9844 45.5078 -88.7695 C 45.5078 -93.5547 49.6094 -97.6074 54.2969 -97.6074 C 59.1797 -97.6074 63.1348 -93.5547 63.1348 -88.7695 C 63.1348 -83.9844 59.1797 -79.8828 54.2969 -79.8828 Z"/>
  </g>
  <g id="Semibold-L" transform="matrix(1 0 0 1 1982.87 1556)">
   <path d="M 60.4004 29.4922 C 62.793 29.4922 66.6504 19.7754 66.6504 4.78516 L 66.6504 -57.1777 C 77.1973 -59.9609 84.8633 -69.5312 84.8633 -80.9082 C 84.8633 -94.4336 74.0234 -105.469 60.4004 -105.469 C 46.8262 -105.469 35.9375 -94.4336 35.9375 -80.9082 C 35.9375 -69.5801 43.5547 -60.0098 54.0527 -57.1777 L 54.0527 4.78516 C 54.0527 19.7266 58.0078 29.4922 60.4004 29.4922 Z M 53.3691 -79.5898 C 48.9258 -79.5898 44.9707 -83.4961 44.9707 -88.0371 C 44.9707 -92.5781 48.9258 -96.3867 53.3691 -96.3867 C 57.959 -96.3867 61.7188 -92.5781 61.7188 -88.0371 C 61.7188 -83.4961 57.959 -79.5898 53.3691 -79.5898 Z"/>
  </g>
  <g id="Medium-L" transform="matrix(1 0 0 1 1687.16 1556)">
   <path d="M 59.4238 29.0039 C 61.7188 29.0039 65.0879 19.8242 65.0879 4.39453 L 65.0879 -57.7637 C 75.3418 -60.3027 82.8613 -69.5801 82.8613 -80.5664 C 82.8613 -93.5547 72.4609 -104.102 59.4238 -104.102 C 46.3867 -104.102 35.9863 -93.5547 35.9863 -80.5664 C 35.9863 -69.6289 43.457 -60.3516 53.6621 -57.7637 L 53.6621 4.39453 C 53.6621 19.7266 57.1289 29.0039 59.4238 29.0039 Z M 52.5879 -79.3945 C 48.3398 -79.3945 44.5801 -83.1055 44.5801 -87.4512 C 44.5801 -91.7969 48.3398 -95.459 52.5879 -95.459 C 57.0312 -95.459 60.6445 -91.7969 60.6445 -87.4512 C 60.6445 -83.1055 57.0312 -79.3945 52.5879 -79.3945 Z"/>
  </g>
  <g id="Regular-L" transform="matrix(1 0 0 1 1391.71 1556)">
   <path d="M 58.1055 28.3691 C 60.3027 28.3691 62.9883 19.873 62.9883 3.95508 L 62.9883 -58.5449 C 72.9004 -60.791 80.2246 -69.6289 80.2246 -80.1758 C 80.2246 -92.3828 70.4102 -102.344 58.1055 -102.344 C 45.8496 -102.344 36.0352 -92.3828 36.0352 -80.1758 C 36.0352 -69.6777 43.3105 -60.791 53.1738 -58.5449 L 53.1738 3.95508 C 53.1738 19.7754 55.957 28.3691 58.1055 28.3691 Z M 51.6602 -79.1016 C 47.6562 -79.1016 44.0918 -82.6172 44.0918 -86.7188 C 44.0918 -90.8203 47.6562 -94.2871 51.6602 -94.2871 C 55.8105 -94.2871 59.1797 -90.8203 59.1797 -86.7188 C 59.1797 -82.6172 55.8105 -79.1016 51.6602 -79.1016 Z"/>
  </g>
  <g id="Light-L" transform="matrix(1 0 0 1 1098.59 1556)">
   <path d="M 54.541 26.8555 C 56.1523 26.8555 58.1543 20.5566 58.1543 8.34961 L 58.1543 -59.7656 C 67.5293 -61.4746 74.5117 -69.6777 74.5117 -79.4922 C 74.5117 -90.5273 65.6738 -99.5117 54.541 -99.5117 C 43.4082 -99.5117 34.5703 -90.5273 34.5703 -79.4922 C 34.5703 -69.6777 41.5527 -61.4746 50.8789 -59.7656 L 50.8789 8.34961 C 50.8789 20.5078 52.9297 26.8555 54.541 26.8555 Z M 48.4863 -78.7598 C 44.873 -78.7598 41.6504 -81.9336 41.6504 -85.5957 C 41.6504 -89.3066 44.873 -92.4316 48.4863 -92.4316 C 52.1973 -92.4316 55.3223 -89.3066 55.3223 -85.5957 C 55.3223 -81.9336 52.1973 -78.7598 48.4863 -78.7598 Z"/>
  </g>
  <g id="Thin-L" transform="matrix(1 0 0 1 806.618 1556)">
   <path d="M 49.8047 24.9023 C 50.7324 24.9023 51.7578 21.4844 51.7578 14.1602 L 51.7578 -61.4258 C 60.4004 -62.4023 66.9434 -69.7266 66.9434 -78.5645 C 66.9434 -88.0371 59.375 -95.752 49.8047 -95.752 C 40.2344 -95.752 32.666 -88.0371 32.666 -78.5645 C 32.666 -69.7266 39.209 -62.4023 47.8516 -61.4258 L 47.8516 14.1602 C 47.8516 21.4355 48.877 24.9023 49.8047 24.9023 Z M 44.2871 -78.2715 C 41.1621 -78.2715 38.3789 -80.957 38.3789 -84.1309 C 38.3789 -87.3535 41.1621 -90.0391 44.2871 -90.0391 C 47.4609 -90.0391 50.1465 -87.3535 50.1465 -84.1309 C 50.1465 -80.957 47.4609 -78.2715 44.2871 -78.2715 Z"/>
  </g>
  <g id="Ultralight-L" transform="matrix(1 0 0 1 512.323 1556)">
   <path d="M 47.3633 23.9258 C 47.9492 23.9258 48.4863 21.9727 48.4863 17.1387 L 48.4863 -62.3047 C 56.7383 -62.8906 63.0859 -69.7266 63.0859 -78.0762 C 63.0859 -86.7676 56.1523 -93.8477 47.3633 -93.8477 C 38.623 -93.8477 31.6895 -86.7676 31.6895 -78.0762 C 31.6895 -69.7266 38.0371 -62.8906 46.2891 -62.3047 L 46.2891 17.1387 C 46.2891 21.875 46.8262 23.9258 47.3633 23.9258 Z M 42.1387 -78.0273 C 39.3066 -78.0273 36.7188 -80.4688 36.7188 -83.3984 C 36.7188 -86.3281 39.3066 -88.7695 42.1387 -88.7695 C 45.0684 -88.7695 47.5098 -86.3281 47.5098 -83.3984 C 47.5098 -80.4688 45.0684 -78.0273 42.1387 -78.0273 Z"/>
  </g>
  <g id="Black-M" transform="matrix(1 0 0 1 2882.42 1126)">
   <path d="M 50.9766 17.2363 C 53.2227 17.2363 58.8867 7.56836 58.8867 0.292969 L 58.8867 -49.2676 C 68.4082 -52.5879 75.1465 -61.6211 75.1465 -72.168 C 75.1465 -85.5957 64.4043 -96.4844 50.9766 -96.4844 C 37.5488 -96.4844 26.8066 -85.5957 26.8066 -72.168 C 26.8066 -61.6211 33.5449 -52.6367 42.9688 -49.3164 L 42.9688 0.292969 C 42.9688 7.51953 48.7305 17.2363 50.9766 17.2363 Z M 44.1895 -70.7031 C 39.8438 -70.7031 35.9375 -74.5605 35.9375 -79.0039 C 35.9375 -83.4961 39.8438 -87.2559 44.1895 -87.2559 C 48.7793 -87.2559 52.4902 -83.4961 52.4902 -79.0039 C 52.4902 -74.5605 48.7793 -70.7031 44.1895 -70.7031 Z"/>
  </g>
  <g id="Heavy-M" transform="matrix(1 0 0 1 2586.64 1126)">
   <path d="M 50.0488 16.6992 C 52.2461 16.6992 57.1777 7.4707 57.1777 -1.51367 L 57.1777 -50.0488 C 66.3086 -53.0273 72.8516 -61.6699 72.8516 -71.7773 C 72.8516 -84.4238 62.7441 -94.6777 50.0488 -94.6777 C 37.4023 -94.6777 27.2461 -84.4238 27.2461 -71.7773 C 27.2461 -61.7188 33.7891 -53.0762 42.8711 -50.0977 L 42.8711 -1.51367 C 42.8711 7.42188 47.8516 16.6992 50.0488 16.6992 Z M 43.6523 -70.4102 C 39.502 -70.4102 35.8398 -74.0723 35.8398 -78.2227 C 35.8398 -82.4707 39.502 -86.0352 43.6523 -86.0352 C 47.9492 -86.0352 51.416 -82.4707 51.416 -78.2227 C 51.416 -74.0723 47.9492 -70.4102 43.6523 -70.4102 Z"/>
  </g>
  <g id="Bold-M" transform="matrix(1 0 0 1 2290.95 1126)">
   <path d="M 49.0234 16.0645 C 51.123 16.0645 55.2246 7.32422 55.2246 -3.56445 L 55.2246 -50.9277 C 63.9648 -53.6133 70.2637 -61.7676 70.2637 -71.3379 C 70.2637 -83.0566 60.8398 -92.6758 49.0234 -92.6758 C 37.2559 -92.6758 27.7832 -83.0566 27.7832 -71.3379 C 27.7832 -61.7676 34.082 -53.6621 42.7734 -50.9766 L 42.7734 -3.56445 C 42.7734 7.27539 46.9238 16.0645 49.0234 16.0645 Z M 43.0176 -70.0684 C 39.1602 -70.0684 35.7422 -73.4863 35.7422 -77.3926 C 35.7422 -81.3477 39.1602 -84.668 43.0176 -84.668 C 47.0215 -84.668 50.293 -81.3477 50.293 -77.3926 C 50.293 -73.4863 47.0215 -70.0684 43.0176 -70.0684 Z"/>
  </g>
  <g id="Semibold-M" transform="matrix(1 0 0 1 1994.95 1126)">
   <path d="M 48.3398 15.625 C 50.3906 15.625 53.9062 7.22656 53.9062 -4.93164 L 53.9062 -51.5625 C 62.3535 -53.9551 68.5059 -61.8164 68.5059 -70.9961 C 68.5059 -82.1777 59.5215 -91.2598 48.3398 -91.2598 C 37.1094 -91.2598 28.125 -82.1777 28.125 -70.9961 C 28.125 -61.8164 34.2285 -54.0039 42.6758 -51.5625 L 42.6758 -4.93164 C 42.6758 7.17773 46.2402 15.625 48.3398 15.625 Z M 42.5781 -69.8242 C 38.916 -69.8242 35.6934 -73.0957 35.6934 -76.8066 C 35.6934 -80.5664 38.916 -83.6914 42.5781 -83.6914 C 46.3867 -83.6914 49.5117 -80.5664 49.5117 -76.8066 C 49.5117 -73.0957 46.3867 -69.8242 42.5781 -69.8242 Z"/>
  </g>
  <g id="Medium-M" transform="matrix(1 0 0 1 1698.78 1126)">
   <path d="M 47.8027 15.332 C 49.8047 15.332 52.8809 7.17773 52.8809 -6.00586 L 52.8809 -52.002 C 61.1328 -54.248 67.1387 -61.8164 67.1387 -70.752 C 67.1387 -81.4941 58.5449 -90.2344 47.8027 -90.2344 C 37.0117 -90.2344 28.418 -81.4941 28.418 -70.752 C 28.418 -61.8652 34.375 -54.2969 42.627 -52.0508 L 42.627 -6.00586 C 42.627 7.08008 45.752 15.332 47.8027 15.332 Z M 42.2852 -69.6777 C 38.7207 -69.6777 35.6445 -72.7539 35.6445 -76.3672 C 35.6445 -79.9316 38.7207 -82.959 42.2852 -82.959 C 45.8984 -82.959 48.877 -79.9316 48.877 -76.3672 C 48.877 -72.7539 45.8984 -69.6777 42.2852 -69.6777 Z"/>
  </g>
  <g id="Regular-M" transform="matrix(1 0 0 1 1402.75 1126)">
   <path d="M 47.0703 14.8926 C 49.0723 14.8926 51.6113 7.08008 51.6113 -7.37305 L 51.6113 -52.6367 C 59.5703 -54.6387 65.4297 -61.8652 65.4297 -70.459 C 65.4297 -80.5664 57.2754 -88.8672 47.0703 -88.8672 C 36.9141 -88.8672 28.7598 -80.5664 28.7598 -70.459 C 28.7598 -61.9141 34.5703 -54.6875 42.5293 -52.6367 L 42.5293 -7.37305 C 42.5293 7.03125 45.1172 14.8926 47.0703 14.8926 Z M 41.8457 -69.4336 C 38.5254 -69.4336 35.5469 -72.3633 35.5469 -75.7812 C 35.5469 -79.1504 38.5254 -82.0312 41.8457 -82.0312 C 45.2637 -82.0312 48.0957 -79.1504 48.0957 -75.7812 C 48.0957 -72.3633 45.2637 -69.4336 41.8457 -69.4336 Z"/>
  </g>
  <g id="Light-M" transform="matrix(1 0 0 1 1109.26 1126)">
   <path d="M 43.8965 13.5742 C 45.3613 13.5742 47.2656 7.71484 47.2656 -3.41797 L 47.2656 -53.7109 C 54.7363 -55.2734 60.3027 -61.9141 60.3027 -69.8242 C 60.3027 -78.9062 53.0273 -86.3281 43.8965 -86.3281 C 34.7656 -86.3281 27.4414 -78.9062 27.4414 -69.8242 C 27.4414 -61.9141 33.0078 -55.2734 40.4785 -53.7109 L 40.4785 -3.41797 C 40.4785 7.61719 42.3828 13.5742 43.8965 13.5742 Z M 39.0137 -69.1406 C 36.0352 -69.1406 33.3984 -71.7285 33.3984 -74.7559 C 33.3984 -77.832 36.0352 -80.3711 39.0137 -80.3711 C 42.0898 -80.3711 44.6289 -77.832 44.6289 -74.7559 C 44.6289 -71.7285 42.0898 -69.1406 39.0137 -69.1406 Z"/>
  </g>
  <g id="Thin-M" transform="matrix(1 0 0 1 816.774 1126)">
   <path d="M 39.6484 11.8164 C 40.4785 11.8164 41.5039 8.54492 41.5039 1.80664 L 41.5039 -55.1758 C 48.3398 -56.0547 53.5156 -61.9629 53.5156 -68.9941 C 53.5156 -76.709 47.4121 -82.959 39.6484 -82.959 C 31.8848 -82.959 25.7324 -76.709 25.7324 -68.9941 C 25.7324 -61.9629 30.9082 -56.1035 37.7441 -55.1758 L 37.7441 1.80664 C 37.7441 8.49609 38.7695 11.8164 39.6484 11.8164 Z M 35.2539 -68.7012 C 32.7148 -68.7012 30.4688 -70.8984 30.4688 -73.4375 C 30.4688 -76.0254 32.7148 -78.2227 35.2539 -78.2227 C 37.8418 -78.2227 39.9902 -76.0254 39.9902 -73.4375 C 39.9902 -70.8984 37.8418 -68.7012 35.2539 -68.7012 Z"/>
  </g>
  <g id="Ultralight-M" transform="matrix(1 0 0 1 522.236 1126)">
   <path d="M 37.4512 10.8887 C 37.9883 10.8887 38.5742 8.98438 38.5742 4.49219 L 38.5742 -55.957 C 45.0684 -56.4941 50.0488 -61.9629 50.0488 -68.5547 C 50.0488 -75.5371 44.5312 -81.25 37.4512 -81.25 C 30.4199 -81.25 24.8535 -75.5371 24.8535 -68.5547 C 24.8535 -61.9629 29.834 -56.4941 36.3281 -55.957 L 36.3281 4.49219 C 36.3281 8.88672 36.9141 10.8887 37.4512 10.8887 Z M 33.3008 -68.457 C 31.0059 -68.457 29.0039 -70.459 29.0039 -72.8027 C 29.0039 -75.1465 31.0059 -77.0996 33.3008 -77.0996 C 35.6445 -77.0996 37.6465 -75.1465 37.6465 -72.8027 C 37.6465 -70.459 35.6445 -68.457 33.3008 -68.457 Z"/>
  </g>
  <g id="Black-S" transform="matrix(1 0 0 1 2893.51 696)">
   <path d="M 39.8926 5.85938 C 41.6504 5.85938 46.0449 -1.70898 46.0449 -7.61719 L 46.0449 -46.2891 C 53.4668 -48.8281 58.7402 -55.9082 58.7402 -64.1602 C 58.7402 -74.6094 50.3906 -83.1055 39.8926 -83.1055 C 29.4434 -83.1055 21.0449 -74.6094 21.0449 -64.1602 C 21.0449 -55.9082 26.3184 -48.877 33.6914 -46.2891 L 33.6914 -7.61719 C 33.6914 -1.75781 38.1348 5.85938 39.8926 5.85938 Z M 34.6191 -62.9883 C 31.2012 -62.9883 28.1738 -66.0156 28.1738 -69.4824 C 28.1738 -72.998 31.2012 -75.9277 34.6191 -75.9277 C 38.1836 -75.9277 41.0645 -72.998 41.0645 -69.4824 C 41.0645 -66.0156 38.1836 -62.9883 34.6191 -62.9883 Z"/>
  </g>
  <g id="Heavy-S" transform="matrix(1 0 0 1 2597.14 696)">
   <path d="M 39.5508 5.56641 C 41.3086 5.56641 45.2148 -1.85547 45.2148 -9.42383 L 45.2148 -46.7773 C 52.3926 -49.1699 57.5684 -55.957 57.5684 -63.916 C 57.5684 -73.877 49.5605 -82.0312 39.5508 -82.0312 C 29.541 -82.0312 21.5332 -73.877 21.5332 -63.916 C 21.5332 -55.957 26.6602 -49.1699 33.8379 -46.7773 L 33.8379 -9.42383 C 33.8379 -1.9043 37.793 5.56641 39.5508 5.56641 Z M 34.5215 -62.793 C 31.25 -62.793 28.3691 -65.6738 28.3691 -68.9941 C 28.3691 -72.3633 31.25 -75.1465 34.5215 -75.1465 C 37.8906 -75.1465 40.6738 -72.3633 40.6738 -68.9941 C 40.6738 -65.6738 37.8906 -62.793 34.5215 -62.793 Z"/>
  </g>
  <g id="Bold-S" transform="matrix(1 0 0 1 2300.82 696)">
   <path d="M 39.1602 5.27344 C 40.918 5.27344 44.2871 -2.05078 44.2871 -11.4746 L 44.2871 -47.3145 C 51.2207 -49.5117 56.2012 -56.0059 56.2012 -63.6719 C 56.2012 -73.0957 48.6328 -80.7617 39.1602 -80.7617 C 29.6875 -80.7617 22.1191 -73.0957 22.1191 -63.6719 C 22.1191 -56.0059 27.0996 -49.5117 33.9844 -47.3145 L 33.9844 -11.4746 C 33.9844 -2.09961 37.4023 5.27344 39.1602 5.27344 Z M 34.375 -62.5977 C 31.2988 -62.5977 28.5645 -65.332 28.5645 -68.457 C 28.5645 -71.6309 31.2988 -74.3164 34.375 -74.3164 C 37.5977 -74.3164 40.2344 -71.6309 40.2344 -68.457 C 40.2344 -65.332 37.5977 -62.5977 34.375 -62.5977 Z"/>
  </g>
  <g id="Semibold-S" transform="matrix(1 0 0 1 2004.38 696)">
   <path d="M 38.916 5.0293 C 40.6738 5.0293 43.6035 -2.19727 43.6035 -12.8418 L 43.6035 -47.7051 C 50.3906 -49.707 55.3223 -56.0547 55.3223 -63.4766 C 55.3223 -72.5586 47.998 -79.9316 38.916 -79.9316 C 29.7852 -79.9316 22.4609 -72.5586 22.4609 -63.4766 C 22.4609 -56.0547 27.3438 -49.7559 34.1309 -47.7051 L 34.1309 -12.8418 C 34.1309 -2.24609 37.1094 5.0293 38.916 5.0293 Z M 34.2773 -62.4512 C 31.2988 -62.4512 28.6621 -65.0879 28.6621 -68.1152 C 28.6621 -71.1426 31.2988 -73.7305 34.2773 -73.7305 C 37.4023 -73.7305 39.8926 -71.1426 39.8926 -68.1152 C 39.8926 -65.0879 37.4023 -62.4512 34.2773 -62.4512 Z"/>
  </g>
  <g id="Medium-S" transform="matrix(1 0 0 1 1707.86 696)">
   <path d="M 38.6719 4.88281 C 40.4785 4.88281 43.1152 -2.24609 43.1152 -13.916 L 43.1152 -47.998 C 49.8047 -49.9023 54.5898 -56.0547 54.5898 -63.3301 C 54.5898 -72.1191 47.5098 -79.2969 38.6719 -79.2969 C 29.834 -79.2969 22.7539 -72.1191 22.7539 -63.3301 C 22.7539 -56.1035 27.5879 -49.9512 34.1797 -47.998 L 34.1797 -13.916 C 34.1797 -2.29492 36.9141 4.88281 38.6719 4.88281 Z M 34.2285 -62.3535 C 31.3477 -62.3535 28.7598 -64.8926 28.7598 -67.8223 C 28.7598 -70.8008 31.3477 -73.291 34.2285 -73.291 C 37.207 -73.291 39.6484 -70.8008 39.6484 -67.8223 C 39.6484 -64.8926 37.207 -62.3535 34.2285 -62.3535 Z"/>
  </g>
  <g id="Regular-S" transform="matrix(1 0 0 1 1411.42 696)">
   <path d="M 38.4277 4.6875 C 40.1855 4.6875 42.4805 -2.39258 42.4805 -15.2832 L 42.4805 -48.3398 C 48.9746 -50.1465 53.7109 -56.1035 53.7109 -63.1348 C 53.7109 -71.582 46.9238 -78.4668 38.4277 -78.4668 C 29.9316 -78.4668 23.1445 -71.582 23.1445 -63.1348 C 23.1445 -56.1035 27.832 -50.1953 34.3262 -48.3887 L 34.3262 -15.2832 C 34.3262 -2.44141 36.6211 4.6875 38.4277 4.6875 Z M 34.1309 -62.207 C 31.3477 -62.207 28.9062 -64.6484 28.9062 -67.4805 C 28.9062 -70.3125 31.3477 -72.7051 34.1309 -72.7051 C 37.0117 -72.7051 39.3555 -70.3125 39.3555 -67.4805 C 39.3555 -64.6484 37.0117 -62.207 34.1309 -62.207 Z"/>
  </g>
  <g id="Light-S" transform="matrix(1 0 0 1 1117.54 696)">
   <path d="M 35.5957 3.51562 C 36.9629 3.51562 38.6719 -1.85547 38.6719 -11.8164 L 38.6719 -49.2676 C 44.7266 -50.6836 49.1699 -56.1035 49.1699 -62.5977 C 49.1699 -70.0684 43.1641 -76.2207 35.5957 -76.2207 C 28.0273 -76.2207 21.9727 -70.0684 21.9727 -62.5977 C 21.9727 -56.1523 26.4648 -50.6836 32.4707 -49.2676 L 32.4707 -11.8164 C 32.4707 -1.9043 34.2285 3.51562 35.5957 3.51562 Z M 31.6406 -61.9141 C 29.1504 -61.9141 26.9531 -64.0625 26.9531 -66.6016 C 26.9531 -69.0918 29.1504 -71.2402 31.6406 -71.2402 C 34.1797 -71.2402 36.2793 -69.0918 36.2793 -66.6016 C 36.2793 -64.0625 34.1797 -61.9141 31.6406 -61.9141 Z"/>
  </g>
  <g id="Thin-S" transform="matrix(1 0 0 1 824.586 696)">
   <path d="M 31.8359 1.95312 C 32.6172 1.95312 33.5938 -1.12305 33.5938 -7.22656 L 33.5938 -50.5859 C 39.0625 -51.416 43.2129 -56.1523 43.2129 -61.8652 C 43.2129 -68.1152 38.1836 -73.2422 31.8359 -73.2422 C 25.4883 -73.2422 20.459 -68.1152 20.459 -61.8652 C 20.459 -56.1523 24.6094 -51.416 30.0781 -50.5859 L 30.0781 -7.22656 C 30.0781 -1.17188 31.0547 1.95312 31.8359 1.95312 Z M 28.3203 -61.5234 C 26.2207 -61.5234 24.4141 -63.3301 24.4141 -65.4297 C 24.4141 -67.5293 26.2207 -69.3359 28.3203 -69.3359 C 30.4199 -69.3359 32.1777 -67.5293 32.1777 -65.4297 C 32.1777 -63.3301 30.4199 -61.5234 28.3203 -61.5234 Z"/>
  </g>
  <g id="Ultralight-S" transform="matrix(1 0 0 1 529.804 696)">
   <path d="M 29.9316 1.17188 C 30.4199 1.17188 31.0059 -0.732422 31.0059 -4.83398 L 31.0059 -51.2695 C 36.1816 -51.8066 40.1367 -56.1523 40.1367 -61.4746 C 40.1367 -67.1387 35.6445 -71.7285 29.9316 -71.7285 C 24.2188 -71.7285 19.6777 -67.1387 19.6777 -61.4746 C 19.6777 -56.1523 23.6328 -51.8066 28.8086 -51.2695 L 28.8086 -4.83398 C 28.8086 -0.78125 29.3945 1.17188 29.9316 1.17188 Z M 26.6113 -61.3281 C 24.7559 -61.3281 23.0957 -62.9395 23.0957 -64.8438 C 23.0957 -66.748 24.7559 -68.3594 26.6113 -68.3594 C 28.5156 -68.3594 30.0781 -66.748 30.0781 -64.8438 C 30.0781 -62.9395 28.5156 -61.3281 26.6113 -61.3281 Z"/>
  </g>
 </g>
</svg>
